# Blender 4.5.0
# www.blender.org
o Sphere
v 0.075767 -0.135299 -0.923880
v 0.140000 -0.250000 -0.707107
v 0.182919 -0.326641 -0.382683
v 0.197990 -0.353553 -0.000000
v 0.182919 -0.326641 0.382683
v 0.140000 -0.250000 0.707107
v 0.075767 -0.135299 0.923880
v 0.107151 0.000000 -0.923880
v 0.197990 0.000000 -0.707107
v 0.258686 0.000000 -0.382683
v 0.280000 0.000000 -0.000000
v 0.258686 -0.000000 0.382683
v 0.197990 -0.000000 0.707107
v 0.107151 -0.000000 0.923880
v 0.075767 0.135299 -0.923880
v 0.140000 0.250000 -0.707107
v 0.182919 0.326641 -0.382683
v 0.197990 0.353553 0.000000
v 0.182919 0.326641 0.382683
v 0.140000 0.250000 0.707107
v 0.075767 0.135299 0.923880
v -0.000000 0.133939 -0.923880
v -0.000000 0.247487 -0.707107
v -0.000000 0.323358 -0.382683
v -0.000000 0.350000 0.000000
v 0.000000 0.323358 0.382683
v 0.000000 0.247487 0.707107
v 0.000000 0.133939 0.923880
v -0.075767 0.094709 -0.923880
v -0.140000 0.175000 -0.707107
v -0.182919 0.228648 -0.382683
v -0.197990 0.247487 0.000000
v -0.182919 0.228648 0.382683
v -0.140000 0.175000 0.707107
v -0.075767 0.094709 0.923880
v -0.107151 0.000000 -0.923880
v -0.197990 0.000000 -0.707107
v -0.258686 0.000000 -0.382683
v -0.280000 -0.000000 -0.000000
v -0.258686 -0.000000 0.382683
v -0.197990 -0.000000 0.707107
v -0.107151 -0.000000 0.923880
v -0.075767 -0.094709 -0.923880
v -0.140000 -0.175000 -0.707107
v -0.182919 -0.228648 -0.382684
v -0.197990 -0.247487 -0.000000
v -0.182919 -0.228649 0.382683
v -0.140000 -0.175000 0.707107
v -0.075767 -0.094709 0.923880
v 0.121228 -0.284128 1.223880
v -0.000000 0.000000 -1.000000
v -0.000000 -0.133939 -0.923880
v -0.000000 -0.247487 -0.707107
v -0.000000 -0.323358 -0.382684
v 0.000000 -0.350000 -0.000000
v 0.000000 -0.323358 0.382683
v 0.000000 -0.247487 0.707107
v 0.000000 -0.133939 0.923880
v 0.171442 -0.000000 1.223880
v 0.121228 0.284128 1.223880
v 0.000000 0.401818 1.223880
v -0.121228 0.284128 1.223880
v -0.171442 -0.000000 1.223880
v -0.121228 -0.284128 1.223880
v 0.000000 -0.401818 1.223880
vn -0.0161 0.8967 -0.4424
vn -0.0175 -0.9736 0.2277
vn -0.0179 -0.9974 -0.0694
vn -0.0159 -0.8857 -0.4640
vn -0.0159 -0.8857 0.4640
vn -0.0179 -0.9974 0.0694
vn -0.0175 -0.9736 -0.2277
vn -0.0089 -0.4941 -0.8694
vn 0.9019 -0.2092 -0.3779
vn 0.9019 -0.2092 0.3779
vn 0.9727 -0.2256 0.0542
vn 0.9584 -0.2223 -0.1793
vn 0.5740 -0.1331 -0.8080
vn -0.9302 -0.3082 -0.1993
vn 0.9584 -0.2223 0.1793
vn 0.9727 -0.2256 -0.0542
vn 0.9019 0.2092 0.3779
vn 0.9727 0.2256 0.0542
vn 0.9584 0.2223 -0.1793
vn 0.5740 0.1331 -0.8080
vn 0.9536 0.2212 -0.2044
vn 0.9584 0.2223 0.1793
vn 0.9727 0.2256 -0.0542
vn 0.9019 0.2092 -0.3779
vn -0.0089 0.4941 -0.8694
vn 0.9585 -0.1694 -0.2293
vn -0.0175 0.9736 0.2277
vn -0.0179 0.9974 -0.0694
vn -0.0159 0.8857 -0.4639
vn -0.0159 0.8857 0.4640
vn -0.0179 0.9974 0.0694
vn -0.0175 0.9736 -0.2277
vn -0.4502 0.8695 0.2033
vn -0.4589 0.8863 -0.0617
vn -0.4169 0.8052 -0.4218
vn -0.4169 0.8052 0.4218
vn -0.4589 0.8863 0.0617
vn -0.4502 0.8695 -0.2033
vn -0.2478 0.4787 -0.8423
vn 0.5865 -0.6041 -0.5395
vn -0.8820 0.2923 0.3696
vn -0.9479 0.3141 0.0528
vn -0.9346 0.3097 -0.1749
vn -0.5688 0.1885 -0.8006
vn -0.9533 0.1685 -0.2508
vn -0.9346 0.3097 0.1749
vn -0.9479 0.3141 -0.0528
vn -0.8820 0.2923 -0.3696
vn -0.9479 -0.3141 0.0528
vn -0.9346 -0.3097 -0.1749
vn -0.5688 -0.1885 -0.8006
vn -0.3890 -0.7512 -0.5333
vn -0.9346 -0.3097 0.1749
vn -0.9479 -0.3141 -0.0528
vn -0.8820 -0.2923 -0.3696
vn -0.8820 -0.2923 0.3696
vn -0.5865 0.6041 -0.5395
vn -0.4502 -0.8695 0.2033
vn -0.4589 -0.8863 -0.0617
vn -0.4169 -0.8052 -0.4218
vn -0.4169 -0.8052 0.4218
vn -0.4589 -0.8863 0.0617
vn -0.4502 -0.8695 -0.2033
vn -0.2478 -0.4787 -0.8423
vn -0.0000 -0.0000 1.0000
vn 0.5865 0.6041 -0.5395
vn -0.0159 -0.8857 0.4639
vn -0.9533 -0.1685 -0.2508
vn 0.9585 0.1694 -0.2293
vn 0.9536 -0.2212 -0.2044
vn -0.0159 0.8857 -0.4640
vn -0.0161 -0.8967 -0.4424
vn -0.9302 0.3082 -0.1993
vn -0.5865 -0.6041 -0.5395
vn -0.3890 0.7512 -0.5333
vt 0.250000 0.125000
vt 0.375000 0.125000
vt 0.750000 0.375000
vt 0.625000 0.250000
vt 0.750000 0.250000
vt 0.750000 0.500000
vt 0.625000 0.625000
vt 0.625000 0.500000
vt 0.750000 0.750000
vt 0.625000 0.875000
vt 0.625000 0.750000
vt 0.625000 0.125000
vt 0.750000 0.125000
vt 0.625000 0.375000
vt 0.750000 0.625000
vt 0.750000 0.875000
vt 0.687500 1.000000
vt 0.500000 0.750000
vt 0.500000 0.125000
vt 0.500000 0.375000
vt 0.500000 0.625000
vt 0.562500 1.000000
vt 0.500000 0.875000
vt 0.875000 0.125000
vt 1.000000 0.125000
vt 0.500000 0.250000
vt 0.500000 0.500000
vt 0.375000 0.500000
vt 0.375000 0.375000
vt 0.375000 0.750000
vt 0.375000 0.625000
vt 0.437500 1.000000
vt 0.375000 0.875000
vt 0.375000 0.250000
vt 0.312500 1.000000
vt 0.250000 0.875000
vt 0.250000 0.375000
vt 0.250000 0.250000
vt 0.250000 0.500000
vt 0.250000 0.750000
vt 0.250000 0.625000
vt 0.125000 0.250000
vt 0.125000 0.625000
vt 0.125000 0.500000
vt 0.125000 0.875000
vt 0.125000 0.750000
vt 0.125000 0.125000
vt 0.125000 0.375000
vt 0.187500 1.000000
vt 0.000000 0.125000
vt 0.000000 0.375000
vt 0.000000 0.750000
vt 0.000000 0.625000
vt 0.062500 1.000000
vt 0.000000 0.875000
vt 0.000000 0.250000
vt 0.000000 0.500000
vt 1.000000 0.375000
vt 0.875000 0.500000
vt 0.875000 0.375000
vt 1.000000 0.750000
vt 0.875000 0.625000
vt 1.000000 0.625000
vt 1.000000 0.875000
vt 0.937500 1.000000
vt 0.875000 0.875000
vt 1.000000 0.250000
vt 0.875000 0.250000
vt 1.000000 0.500000
vt 0.875000 0.750000
vt 0.812500 1.000000
s 0
f 28/1/1 60/2/1 21/2/1
f 56/3/2 6/4/2 57/5/2
f 55/6/3 3/7/3 4/8/3
f 53/9/4 1/10/4 2/11/4
f 57/5/5 7/12/5 58/13/5
f 55/6/6 5/14/6 56/3/6
f 54/15/7 2/11/7 3/7/7
f 52/16/8 51/17/8 1/10/8
f 1/10/9 9/18/9 2/11/9
f 6/4/10 14/19/10 7/12/10
f 4/8/11 12/20/11 5/14/11
f 3/7/12 9/18/12 10/21/12
f 1/10/13 51/22/13 8/23/13
f 49/24/14 63/25/14 42/25/14
f 5/14/15 13/26/15 6/4/15
f 3/7/16 11/27/16 4/8/16
f 13/26/17 21/2/17 14/19/17
f 12/20/18 18/28/18 19/29/18
f 10/21/19 16/30/19 17/31/19
f 8/23/20 51/32/20 15/33/20
f 21/2/21 59/19/21 14/19/21
f 12/20/22 20/34/22 13/26/22
f 10/21/23 18/28/23 11/27/23
f 8/23/24 16/30/24 9/18/24
f 15/33/25 51/35/25 22/36/25
f 7/12/26 59/19/26 50/12/26
f 20/34/27 26/37/27 27/38/27
f 17/31/28 25/39/28 18/28/28
f 15/33/29 23/40/29 16/30/29
f 21/2/30 27/38/30 28/1/30
f 19/29/31 25/39/31 26/37/31
f 16/30/32 24/41/32 17/31/32
f 26/37/33 34/42/33 27/38/33
f 25/39/34 31/43/34 32/44/34
f 23/40/35 29/45/35 30/46/35
f 27/38/36 35/47/36 28/1/36
f 25/39/37 33/48/37 26/37/37
f 24/41/38 30/46/38 31/43/38
f 22/36/39 51/49/39 29/45/39
f 58/13/40 50/12/40 65/13/40
f 34/42/41 42/50/41 35/47/41
f 32/44/42 40/51/42 33/48/42
f 31/43/43 37/52/43 38/53/43
f 29/45/44 51/54/44 36/55/44
f 35/47/45 63/50/45 62/47/45
f 33/48/46 41/56/46 34/42/46
f 32/44/47 38/53/47 39/57/47
f 30/46/48 36/55/48 37/52/48
f 40/58/49 46/59/49 47/60/49
f 37/61/50 45/62/50 38/63/50
f 36/64/51 51/65/51 43/66/51
f 58/13/52 64/24/52 49/24/52
f 41/67/53 47/60/53 48/68/53
f 38/63/54 46/59/54 39/69/54
f 36/64/55 44/70/55 37/61/55
f 42/25/56 48/68/56 49/24/56
f 28/1/57 62/47/57 61/1/57
f 48/68/58 56/3/58 57/5/58
f 45/62/59 55/6/59 46/59/59
f 43/66/60 53/9/60 44/70/60
f 49/24/61 57/5/61 58/13/61
f 47/60/62 55/6/62 56/3/62
f 44/70/63 54/15/63 45/62/63
f 43/66/64 51/71/64 52/16/64
f 61/1/65 63/50/65 65/13/65
f 28/1/66 61/1/66 60/2/66
f 56/3/2 5/14/2 6/4/2
f 55/6/3 54/15/3 3/7/3
f 53/9/4 52/16/4 1/10/4
f 57/5/67 6/4/67 7/12/67
f 55/6/6 4/8/6 5/14/6
f 54/15/7 53/9/7 2/11/7
f 1/10/9 8/23/9 9/18/9
f 6/4/10 13/26/10 14/19/10
f 4/8/11 11/27/11 12/20/11
f 3/7/12 2/11/12 9/18/12
f 49/24/68 64/24/68 63/25/68
f 5/14/15 12/20/15 13/26/15
f 3/7/16 10/21/16 11/27/16
f 13/26/17 20/34/17 21/2/17
f 12/20/18 11/27/18 18/28/18
f 10/21/19 9/18/19 16/30/19
f 21/2/69 60/2/69 59/19/69
f 12/20/22 19/29/22 20/34/22
f 10/21/23 17/31/23 18/28/23
f 8/23/24 15/33/24 16/30/24
f 7/12/70 14/19/70 59/19/70
f 20/34/27 19/29/27 26/37/27
f 17/31/28 24/41/28 25/39/28
f 15/33/71 22/36/71 23/40/71
f 21/2/30 20/34/30 27/38/30
f 19/29/31 18/28/31 25/39/31
f 16/30/32 23/40/32 24/41/32
f 26/37/33 33/48/33 34/42/33
f 25/39/34 24/41/34 31/43/34
f 23/40/35 22/36/35 29/45/35
f 27/38/36 34/42/36 35/47/36
f 25/39/37 32/44/37 33/48/37
f 24/41/38 23/40/38 30/46/38
f 58/13/72 7/12/72 50/12/72
f 34/42/41 41/56/41 42/50/41
f 32/44/42 39/57/42 40/51/42
f 31/43/43 30/46/43 37/52/43
f 35/47/73 42/50/73 63/50/73
f 33/48/46 40/51/46 41/56/46
f 32/44/47 31/43/47 38/53/47
f 30/46/48 29/45/48 36/55/48
f 40/58/49 39/69/49 46/59/49
f 37/61/50 44/70/50 45/62/50
f 58/13/74 65/13/74 64/24/74
f 41/67/53 40/58/53 47/60/53
f 38/63/54 45/62/54 46/59/54
f 36/64/55 43/66/55 44/70/55
f 42/25/56 41/67/56 48/68/56
f 28/1/75 35/47/75 62/47/75
f 48/68/58 47/60/58 56/3/58
f 45/62/59 54/15/59 55/6/59
f 43/66/60 52/16/60 53/9/60
f 49/24/61 48/68/61 57/5/61
f 47/60/62 46/59/62 55/6/62
f 44/70/63 53/9/63 54/15/63
f 65/13/65 50/12/65 59/19/65
f 59/19/65 60/2/65 61/1/65
f 61/1/65 62/47/65 63/50/65
f 63/50/65 64/24/65 65/13/65
f 65/13/65 59/19/65 61/1/65
